<svg xmlns="http://www.w3.org/2000/svg" version="1.1" xmlns:xlink="http://www.w3.org/1999/xlink" xmlns:svgjs="http://svgjs.dev/svgjs" viewBox="0 0 1422 800"><defs><filter id="uuunion-blur" x="-100%" y="-100%" width="400%" height="400%" color-interpolation-filters="sRGB">
        <feGaussianBlur in="SourceGraphic" stdDeviation="0 0" result="blur"></feGaussianBlur>
        <feDropShadow stdDeviation="0" in="blur" dx="0" dy="0" flood-color="hsl(270, 73%, 53%)" flood-opacity="0.25" x="0%" y="0%" width="100%" height="100%"></feDropShadow>
      </filter><filter id="uuunion-blur2" x="-100%" y="-100%" width="400%" height="400%" color-interpolation-filters="sRGB">
        <feGaussianBlur in="SourceGraphic" stdDeviation="0 0" result="blur"></feGaussianBlur>
        <feDropShadow stdDeviation="0" in="blur" dx="-0" dy="-0" flood-color="hsl(270, 73%, 53%)" flood-opacity="0.25" x="0%" y="0%" width="100%" height="100%"></feDropShadow>
      </filter><linearGradient gradientTransform="rotate(80, 0.5, 0.5)" x1="50%" y1="0%" x2="50%" y2="100%" id="uuunion-grad"><stop stop-color="hsl(162, 100%, 58%)" offset="10%"></stop><stop stop-color="hsl(270, 73%, 53%)" offset="90%"></stop></linearGradient><linearGradient gradientTransform="rotate(135, 0.5, 0.5)" x1="50%" y1="0%" x2="50%" y2="100%" id="uuunion-grad2"><stop stop-color="hsl(162, 100%, 58%)" offset="25%"></stop><stop stop-color="hsl(270, 73%, 53%)" offset="100%"></stop></linearGradient><linearGradient gradientTransform="rotate(333, 0.5, 0.5)" x1="50%" y1="0%" x2="50%" y2="100%" id="uuunion-grad3"><stop stop-color="hsl(162, 100%, 58%)" offset="0%"></stop><stop stop-color="hsl(270, 73%, 53%)" offset="75%"></stop></linearGradient></defs><path d="M-143.07 -76.1Q-129.74 -81.19 -116.41 -86.03 -103.08 -89.52 -89.75 -90.89 -76.42 -89.84 -63.09 -86.6 -49.75 -81.89 -36.42 -76.76 -23.09 -72.35 -9.76 -69.64 3.56 -69.23 16.89 -71.22 30.22 -75.16 43.55 -80.18 56.88 -85.15 70.22 -88.98 83.55 -90.81 96.88 -90.23 110.21 -87.38 123.54 -82.89 136.87 -77.75 150.2 -73.11 163.53 -70 176.86 -69.12 190.2 -70.65 203.53 -74.27 216.86 -79.15 230.19 -84.23 243.52 -88.36 256.85 -90.63 270.18 -90.54 283.51 -88.1 296.84 -83.86 310.18 -78.76 323.51 -73.93 336.84 -70.45 350.17 -69.1 363.5 -70.17 376.83 -73.42 390.16 -78.14 403.49 -83.27 416.83 -87.67 430.16 -90.36 443.49 -90.75 456.82 -88.75 470.15 -84.79 483.48 -79.77 496.81 -74.8 510.14 -70.99 523.47 -69.18 536.81 -69.77 550.14 -72.64 563.47 -77.14 576.8 -82.28 590.13 -86.91 603.46 -90 616.79 -90.87 630.12 -89.32 643.45 -85.69 656.79 -80.79 670.12 -75.72 683.45 -71.6 696.78 -69.35 710.11 -69.46 723.44 -71.92 736.77 -76.17 750.1 -81.28 763.44 -86.09 776.77 -89.56 790.1 -90.89 803.43 -89.8 816.76 -86.53 830.09 -81.81 843.42 -76.68 856.75 -72.29 870.08 -69.61 883.42 -69.25 896.75 -71.27 910.08 -75.23 923.41 -80.26 936.74 -85.22 950.07 -89.02 963.4 -90.82 976.73 -90.21 990.07 -87.32 1003.4 -82.81 1016.73 -77.67 1030.06 -73.05 1043.39 -69.97 1056.72 -69.12 1070.05 -70.7 1083.38 -74.34 1096.72 -79.24 1110.05 -84.3 1123.38 -88.41 1136.71 -90.65 1150.04 -90.52 1163.37 -88.04 1176.7 -83.78 1190.03 -78.67 1203.36 -73.86 1216.7 -70.41 1230.03 -69.1 1243.36 -70.2 1256.69 -73.49 1270.02 -78.22 1283.35 -83.35 1296.68 -87.73 1310.01 -90.39 1323.35 -90.74 1336.68 -88.7 1350.01 -84.72 1363.34 -79.69 1376.67 -74.73 1390 -70.94 1403.33 -69.17 1416.66 -69.8 1430 -72.7 1443.33 -77.22 1456.66 -82.36 1469.99 -86.98 1483.32 -90.04 1496.65 -90.86 1509.98 -89.27 1523.31 -85.62 1536.65 -80.71 1549.98 -75.65 1563.31 -71.55 1563.2 -56.68 1563.24 -41.81 1563.41 -26.94 1563.7 -12.07 1564.07 2.79 1564.45 17.66 1564.79 32.53 1565.05 47.39 1565.18 62.26 1565.17 77.13 1565.02 92 1564.74 106.87 1564.39 121.74 1564 136.61 1563.65 151.48 1563.38 166.35 1563.22 181.22 1563.21 196.09 1563.34 210.96 1563.6 225.83 1563.94 240.69 1564.32 255.56 1564.68 270.43 1564.98 285.3 1565.15 300.17 1565.19 315.04 1565.08 329.91 1564.84 344.78 1564.51 359.65 1564.13 374.52 1563.76 389.39 1563.46 404.26 1563.26 419.13 1563.2 433.99 1563.28 448.86 1563.5 463.73 1563.82 478.6 1564.19 493.47 1564.57 508.34 1564.89 523.21 1565.11 538.08 1565.19 552.95 1565.13 567.82 1564.94 582.69 1564.63 597.56 1564.26 612.43 1563.88 627.3 1563.55 642.16 1563.31 657.03 1563.2 671.9 1563.24 686.77 1563.41 701.64 1563.7 716.51 1564.06 731.38 1564.45 746.25 1564.79 761.12 1565.05 775.99 1565.18 790.86 1565.17 805.73 1565.02 820.6 1564.74 835.46 1564.39 850.33 1564.01 865.2 1563.65 880.07 1550.32 880.03 1536.99 879.99 1523.66 879.94 1510.33 879.91 1497 879.9 1483.67 879.9 1470.33 879.93 1457 879.97 1443.67 880.02 1430.34 880.06 1417.01 880.09 1403.68 880.09 1390.35 880.08 1377.02 880.04 1363.68 880 1350.35 879.95 1337.02 879.92 1323.69 879.9 1310.36 879.9 1297.03 879.92 1283.7 879.96 1270.37 880.01 1257.03 880.05 1243.7 880.08 1230.37 880.09 1217.04 880.08 1203.71 880.05 1190.38 880.01 1177.05 879.96 1163.72 879.92 1150.38 879.9 1137.05 879.9 1123.72 879.92 1110.39 879.96 1097.06 880 1083.73 880.05 1070.4 880.08 1057.07 880.09 1043.74 880.09 1030.4 880.06 1017.07 880.02 1003.74 879.97 990.41 879.93 977.08 879.9 963.75 879.9 950.42 879.91 937.09 879.95 923.75 879.99 910.42 880.04 897.09 880.08 883.76 880.09 870.43 880.09 857.1 880.07 843.77 880.03 830.44 879.98 817.1 879.94 803.77 879.91 790.44 879.9 777.11 879.91 763.78 879.94 750.45 879.98 737.12 880.03 723.79 880.07 710.46 880.09 697.12 880.09 683.79 880.07 670.46 880.03 657.13 879.99 643.8 879.94 630.47 879.91 617.14 879.9 603.81 879.9 590.47 879.93 577.14 879.97 563.81 880.02 550.48 880.06 537.15 880.09 523.82 880.09 510.49 880.08 497.16 880.04 483.83 880 470.49 879.95 457.16 879.91 443.83 879.9 430.5 879.9 417.17 879.92 403.84 879.96 390.51 880.01 377.18 880.06 363.85 880.09 350.51 880.09 337.18 880.08 323.85 880.05 310.52 880.01 297.19 879.96 283.86 879.92 270.53 879.9 257.2 879.9 243.87 879.92 230.53 879.96 217.2 880 203.87 880.05 190.54 880.08 177.21 880.09 163.88 880.09 150.55 880.06 137.22 880.02 123.89 879.97 110.55 879.93 97.22 879.9 83.89 879.9 70.56 879.91 57.23 879.95 43.9 879.99 30.57 880.04 17.24 880.08 3.9 880.09 -9.42 880.09 -22.75 880.07 -36.08 880.02 -49.41 879.98 -62.74 879.93 -76.07 879.9 -89.4 879.9 -102.73 879.91 -116.06 879.94 -129.4 879.98 -142.73 880.03 -142.37 865.09 -141.99 850.15 -141.64 835.21 -141.36 820.27 -141.21 805.33 -141.2 790.39 -141.33 775.45 -141.59 760.51 -141.93 745.57 -142.32 730.63 -142.68 715.69 -142.97 700.76 -143.14 685.82 -143.18 670.88 -143.07 655.94 -142.83 641 -142.5 626.06 -142.12 611.12 -141.75 596.18 -141.44 581.24 -141.25 566.3 -141.19 551.36 -141.27 536.42 -141.49 521.48 -141.81 506.54 -142.19 491.6 -142.56 476.66 -142.88 461.72 -143.1 446.78 -143.18 431.84 -143.12 416.9 -142.92 401.96 -142.62 387.02 -142.25 372.08 -141.87 357.14 -141.54 342.2 -141.3 327.26 -141.19 312.32 -141.23 297.39 -141.4 282.45 -141.7 267.51 -142.06 252.57 -142.44 237.63 -142.78 222.69 -143.04 207.75 -143.17 192.81 -143.16 177.87 -143 162.93 -142.73 147.99 -142.38 133.05 -141.99 118.11 -141.64 103.17 -141.36 88.23 -141.21 73.29 -141.2 58.35 -141.33 43.41 -141.59 28.47 -141.93 13.53 -142.31 -1.4 -142.68 -16.34 -142.97 -31.28 -143.14 -46.22 -143.18 -61.16 -143.07 -76.1" fill="url(#uuunion-grad)"></path><path d="M-143.08 -76.09Q-143.19 -61.15 -143.15 -46.21 -142.98 -31.27 -142.69 -16.33 -142.32 -1.39 -141.94 13.54 -141.6 28.47 -141.34 43.41 -141.21 58.35 -141.22 73.29 -141.37 88.23 -141.65 103.17 -142 118.11 -142.39 133.05 -142.74 147.99 -143.01 162.93 -143.17 177.87 -143.18 192.81 -143.05 207.75 -142.79 222.69 -142.45 237.63 -142.07 252.57 -141.71 267.51 -141.41 282.45 -141.24 297.39 -141.2 312.33 -141.31 327.27 -141.55 342.21 -141.88 357.15 -142.26 372.09 -138.34 393.64 -125.16 398.54 -116.27 396.95 -107.38 395.67 -98.5 394.83 -89.61 394.5 -80.72 394.72 -71.83 395.46 -62.95 396.66 -54.06 398.19 -45.17 399.91 -36.28 401.63 -27.4 403.18 -18.51 404.42 -1.71 405.42 1.25 405.48 12.4 401.81 23.55 397.36 34.71 392.34 45.87 387.02 57.04 381.74 68.2 376.85 79.37 372.63 90.55 369.24 101.72 366.75 112.89 365.07 124.07 363.98 135.24 363.16 146.41 362.27 157.58 360.96 168.75 358.93 179.92 356.01 191.08 352.15 202.25 347.46 213.4 342.18 224.56 336.62 235.71 331.18 246.85 326.2 257.99 321.99 269.12 318.73 280.25 316.44 291.37 315 302.49 314.17 313.6 313.59 324.7 312.86 335.8 311.62 346.89 309.56 357.97 306.51 369.05 302.44 380.12 297.5 391.19 291.95 402.25 286.17 413.3 280.57 424.35 275.53 435.39 271.37 446.43 268.24 457.46 266.17 468.49 265 479.52 264.43 490.54 264.07 501.56 263.49 512.58 262.3 523.6 260.18 534.61 256.98 545.63 252.68 556.64 247.47 567.65 241.66 578.67 235.66 589.69 229.92 600.7 224.84 611.72 220.75 622.75 217.79 633.77 215.96 644.8 215.06 655.83 214.75 666.87 214.61 677.91 214.16 688.96 213 700.01 210.8 711.07 207.41 722.14 202.87 733.21 197.38 744.28 191.3 755.37 185.09 766.46 179.23 777.55 174.14 788.65 170.14 799.76 167.38 810.88 165.8 822 165.19 833.13 165.14 844.26 165.2 855.4 164.87 866.54 163.7 877.69 161.39 888.84 157.8 900 152.99 911.16 147.21 922.32 140.88 933.49 134.47 944.66 128.51 955.83 123.44 967 119.56 978.18 117.01 989.35 115.71 1000.52 115.38 1011.7 115.6 1022.87 115.85 1034.04 115.6 1045.21 114.41 1056.37 111.96 1067.54 108.14 1078.7 103.05 1089.85 96.98 1101 90.39 1112.15 83.8 1123.29 77.76 1134.43 72.73 1145.56 69.01 1156.68 66.7 1167.8 65.68 1178.91 65.65 1190.02 66.12 1201.12 66.54 1212.21 66.36 1223.3 65.11 1234.38 62.5 1245.45 58.43 1256.52 53.05 1267.58 46.68 1278.64 39.84 1289.69 33.09 1300.73 27 1311.77 22.03 1322.81 18.48 1333.84 16.43 1344.87 15.72 1355.89 15.98 1366.92 16.7 1377.93 17.28 1388.95 17.14 1399.97 15.81 1410.98 13.01 1422 8.67 1421.56 -8.65 1421.21 -25.98 1421.02 -43.31 1421.02 -60.63 1421.21 -77.96 1421.56 -95.29 1421.99 -112.62 1422.43 -129.95 1410.12 -128.46 1397.8 -129.16 1385.49 -131.92 1373.18 -136.22 1360.87 -141.24 1348.55 -146.02 1336.24 -149.65 1323.93 -151.45 1311.62 -151.07 1299.3 -148.58 1286.99 -144.46 1274.68 -139.48 1262.37 -134.61 1250.05 -130.76 1237.74 -128.67 1225.43 -128.73 1213.12 -130.94 1200.8 -134.87 1188.49 -139.77 1176.18 -144.72 1163.87 -148.77 1151.55 -151.15 1139.24 -151.41 1126.93 -149.49 1114.62 -145.77 1102.3 -140.95 1089.99 -135.95 1077.68 -131.72 1065.37 -129.06 1053.05 -128.48 1040.74 -130.1 1028.43 -133.59 1016.12 -138.31 1003.8 -143.34 991.49 -147.74 979.18 -150.67 966.87 -151.56 954.55 -150.25 942.24 -146.99 929.93 -142.4 917.62 -137.36 905.3 -132.81 892.99 -129.63 880.68 -128.42 868.37 -129.42 856.05 -132.42 843.74 -136.87 831.43 -141.91 819.12 -146.59 806.8 -150.01 794.49 -151.53 782.18 -150.85 769.87 -148.11 757.55 -143.82 745.24 -138.8 732.93 -134.02 720.62 -130.37 708.3 -128.55 695.99 -128.91 683.68 -131.38 671.37 -135.49 659.05 -140.45 646.74 -145.33 634.43 -149.2 622.12 -151.31 609.8 -151.27 597.49 -149.09 585.18 -145.17 572.87 -140.27 560.55 -135.32 548.24 -131.26 535.93 -128.86 523.62 -128.58 511.3 -130.47 498.99 -134.17 486.68 -138.99 474.37 -143.99 462.05 -148.23 449.74 -150.91 437.43 -151.51 425.12 -149.92 412.8 -146.44 400.49 -141.73 388.18 -136.7 375.87 -132.29 363.55 -129.34 351.24 -128.43 338.93 -129.71 326.62 -132.95 314.3 -137.53 301.99 -142.58 289.68 -147.14 277.37 -150.34 265.05 -151.57 252.74 -150.59 240.43 -147.61 228.12 -143.17 215.8 -138.13 203.49 -133.44 191.18 -130 178.87 -128.47 166.55 -129.12 154.24 -131.85 141.93 -136.12 129.62 -141.13 117.3 -145.93 104.99 -149.6 92.68 -151.43 80.37 -151.1 68.05 -148.65 55.74 -144.55 43.43 -139.59 31.12 -134.7 18.8 -130.82 6.49 -128.69 -5.81 -128.71 -18.12 -130.87 -30.44 -134.77 -42.75 -139.67 -55.06 -144.62 -67.37 -148.7 -79.69 -151.12 -92 -151.42 -104.31 -149.55 -116.62 -145.86 -128.94 -141.06 -141.25 -136.05 -153.56 -131.79 -150.98 -117.8 -148.41 -103.87 -145.79 -89.97 -143.08 -76.09" fill="url(#uuunion-grad2)" filter="url(#uuunion-blur)"></path><path d="M1422.93 325.55Q1431.82 324.28 1440.71 322.58 1449.6 320.62 1458.48 318.6 1467.37 316.72 1476.26 315.17 1485.15 314.1 1494.03 313.62 1502.92 313.77 1511.81 314.55 1520.7 315.87 1529.58 317.6 1538.47 319.57 1547.36 321.59 1556.25 323.44 1565.13 324.95 1564.89 342.3 1564.51 359.65 1564.07 377 1563.65 394.34 1563.34 411.69 1563.2 429.04 1563.26 446.39 1563.5 463.73 1563.88 481.08 1564.32 498.43 1564.74 515.78 1565.05 533.12 1565.19 550.47 1565.13 567.82 1564.89 585.17 1564.51 602.51 1564.07 619.86 1563.65 637.21 1563.34 654.56 1563.2 671.9 1563.26 689.25 1563.5 706.6 1563.88 723.95 1564.32 741.29 1564.74 758.64 1565.05 775.99 1565.19 793.34 1565.13 810.68 1564.89 828.03 1564.51 845.38 1564.07 862.73 1563.65 880.07 1551.42 880.04 1539.2 880 1526.97 879.95 1514.74 879.92 1502.51 879.9 1490.28 879.9 1478.06 879.91 1465.83 879.94 1453.6 879.99 1441.37 880.03 1429.14 880.07 1416.92 880.09 1404.69 880.09 1392.46 880.08 1380.23 880.05 1368 880.01 1355.77 879.97 1343.55 879.93 1331.32 879.9 1319.09 879.9 1306.86 879.9 1294.63 879.93 1282.41 879.97 1270.18 880.01 1257.95 880.05 1245.72 880.08 1233.49 880.09 1221.27 880.09 1209.04 880.07 1196.81 880.03 1184.58 879.99 1172.35 879.95 1160.12 879.91 1147.9 879.9 1135.67 879.9 1123.44 879.92 1111.21 879.95 1098.98 880 1086.76 880.04 1074.53 880.07 1062.3 880.09 1050.07 880.09 1037.84 880.08 1025.62 880.04 1013.39 880 1001.16 879.96 988.93 879.92 976.7 879.9 964.47 879.9 952.25 879.91 940.02 879.94 927.79 879.98 915.56 880.02 903.33 880.06 891.11 880.09 878.88 880.09 866.65 880.09 854.42 880.06 842.19 880.02 829.97 879.98 817.74 879.94 805.51 879.91 793.28 879.9 781.05 879.9 768.82 879.93 756.6 879.96 744.37 880 732.14 880.05 719.91 880.08 707.68 880.09 695.46 880.09 683.23 880.07 671 880.04 658.77 879.99 646.54 879.95 634.32 879.92 622.09 879.9 609.86 879.9 597.63 879.91 585.4 879.95 573.17 879.99 560.95 880.03 548.72 880.07 536.49 880.09 524.26 880.09 512.03 880.08 499.81 880.05 487.58 880.01 475.35 879.97 463.12 879.93 450.89 879.9 438.67 879.9 426.44 879.91 414.21 879.93 401.98 879.97 389.75 880.01 377.52 880.05 365.3 880.08 353.07 880.09 340.84 880.09 328.61 880.06 316.38 880.03 304.16 879.98 291.93 879.94 279.7 879.91 267.47 879.9 255.24 879.9 243.02 879.92 230.79 879.96 218.56 880 206.33 880.04 194.1 880.07 181.87 880.09 169.65 880.09 157.42 880.08 145.19 880.04 132.96 880 120.73 879.96 108.51 879.92 96.28 879.9 84.05 879.9 71.82 879.91 59.59 879.94 47.37 879.98 35.14 880.02 22.91 880.06 4.68 875.15 -1.06 860.32 -0.8 850.43 -0.56 840.54 -0.34 830.66 -0.17 820.77 0.21 805.94 0.99 801 13.49 794.71 25.97 788.21 38.42 781.52 50.85 774.72 63.25 767.91 75.64 761.22 88.01 754.75 100.37 748.57 112.71 742.7 125.06 737.08 137.4 731.59 149.74 726.1 162.09 720.44 174.45 714.48 186.82 708.13 199.21 701.38 211.62 694.32 224.06 687.09 236.51 679.87 249 672.88 261.5 666.27 274.04 660.15 286.6 654.5 299.18 649.25 311.78 644.2 324.4 639.12 337.04 633.77 349.68 627.96 362.34 621.57 375 614.6 387.66 607.18 400.31 599.51 412.96 591.88 425.6 584.57 438.22 577.8 450.82 571.69 463.4 566.26 475.95 561.36 488.49 556.74 500.99 552.08 513.48 547.06 525.93 541.43 538.37 535.03 550.78 527.87 563.17 520.1 575.54 512.01 587.9 503.95 600.25 496.29 612.59 489.33 624.93 483.22 637.27 477.97 649.62 473.41 661.97 469.21 674.35 464.98 686.73 460.32 699.14 454.89 711.57 448.51 724.02 441.18 736.5 433.08 749 424.57 761.53 416.08 774.08 408.06 786.66 400.88 799.26 394.74 809 394.34 818.74 394.47 828.48 394.97 838.22 395.63 847.97 396.23 857.71 396.54 867.46 396.37 877.2 395.59 886.95 394.15 896.69 392.06 906.44 389.42 916.19 386.4 925.94 383.19 935.68 380.05 945.43 377.18 955.18 374.8 964.93 373.03 974.68 371.94 984.43 371.51 994.18 371.66 1003.93 372.21 1013.68 372.96 1023.43 373.65 1033.18 374.07 1042.93 374.01 1052.68 373.33 1062.43 371.95 1072.19 369.89 1081.94 367.24 1091.69 364.16 1101.44 360.88 1111.19 357.63 1120.94 354.65 1130.69 352.16 1140.44 350.3 1150.19 349.14 1159.94 348.69 1169.68 348.84 1179.43 349.44 1189.18 350.26 1198.93 351.06 1208.67 351.59 1218.42 351.64 1228.17 351.06 1237.91 349.74 1247.66 347.72 1257.4 345.06 1267.14 341.94 1276.89 338.58 1286.63 335.23 1296.37 332.14 1306.11 329.54 1315.85 327.58 1325.59 326.35 1335.33 325.86 1345.07 326.01 1354.8 326.65 1364.54 327.55 1374.27 328.45 1384.01 329.09 1393.74 329.26 1403.47 328.77 1413.2 327.54 1422.93 325.55" fill="url(#uuunion-grad3)" filter="url(#uuunion-blur2)"></path></svg>